Coordinates
version=1
nRows=6
nColumns=34
inDegrees=yes

Units are S.I. units (second, meters, Newtons, ...)
If the header above contains a line with 'inDegrees', this indicates whether rotational values are in degrees (yes) or radians (no).

endheader
time	pelvis_tilt	pelvis_list	pelvis_rotation	pelvis_tx	pelvis_ty	pelvis_tz	hip_flexion_r	hip_adduction_r	hip_rotation_r	knee_angle_r	ankle_angle_r	subtalar_angle_r	mtp_angle_r	hip_flexion_l	hip_adduction_l	hip_rotation_l	knee_angle_l	ankle_angle_l	subtalar_angle_l	mtp_angle_l	lumbar_extension	lumbar_bending	lumbar_rotation	arm_flex_r	arm_add_r	arm_rot_r	elbow_flex_r	pro_sup_r	arm_flex_l	arm_add_l	arm_rot_l	elbow_flex_l	pro_sup_l
      4.10000000	     -5.65001833	      3.07268323	      4.01369723	      1.83746010	      0.90955438	     -0.08843315	      6.78972292	     -9.58602002	    -15.36319772	     22.81049434	     10.24765222	     -1.22776038	      0.00000000	      7.72757351	     -6.63388953	     -8.83612095	     20.57476681	      5.03339102	     10.41098560	      0.00000000	     -3.96868834	     -2.48563661	      7.00464598	     76.06887610	     -2.79254194	      3.13843839	    104.21035725	     96.29104696	     93.60675249	      4.04400396	     26.91548074	     96.39330267	     93.10667861
      4.11666670	     -6.11440455	      3.10908936	      4.67831119	      1.83977062	      0.92081129	     -0.08792420	      5.46396983	     -9.01967254	    -16.06379736	     18.93951378	      6.04612572	     -1.44763051	      0.00000000	      7.00331571	     -6.16745913	     -8.67232831	     17.29109790	      0.78497632	     10.78975926	      0.00000000	     -3.30679634	     -3.11140599	      8.00086412	     86.78451963	     -3.88850751	      1.61747407	     92.02183837	     95.72929412	     98.60581428	      5.33702029	     24.65092787	     92.90306426	     92.75178293
      4.13333330	     -6.44850550	      3.10713220	      5.37482470	      1.84123847	      0.92951875	     -0.08748052	      4.16665847	     -8.40524588	    -16.84627285	     15.38652285	      1.98952035	     -1.53672079	      0.00000000	      6.50906951	     -5.82563423	     -8.68622655	     14.67176693	     -3.20694315	     10.90918459	      0.00000000	     -2.95074838	     -3.64253278	      8.51043166	     98.01521065	     -4.63595618	      1.98220277	     75.61517341	     95.23977190	    103.75385953	      6.28632123	     22.40569261	     89.46306610	     92.03251004
      4.15000000	     -6.86452303	      3.13913183	      6.01708809	      1.84285800	      0.93397324	     -0.08740114	      3.28106290	     -7.97940883	    -17.39130846	     12.54893108	     -1.47341835	     -1.65937036	      0.00000000	      6.42164530	     -5.43870195	     -8.61922817	     12.75562692	     -6.66108580	     10.81651078	      0.00000000	     -2.60554951	     -4.36633955	      9.44811043	    109.75398878	     -5.46575428	      3.66500245	     56.50580971	     95.01919798	    108.69689764	      8.10448983	     20.96251054	     85.47896845	     90.93269832
      4.16666670	     -7.37927267	      3.04954185	      6.49157002	      1.84588099	      0.93368203	     -0.08694886	      2.86030519	     -7.56605738	    -17.63007542	     10.49636918	     -4.51632091	     -1.97569823	      0.00000000	      6.67535309	     -5.23413210	     -8.66848278	     11.47076607	     -9.73985357	     10.26370603	      0.00000000	     -2.16417591	     -5.31272349	     10.76718399	    121.06339813	     -6.20582879	      5.95814199	     37.69046571	     94.95500926	    114.13119887	     10.45806652	     20.10689683	     80.14867825	     89.86793083
      4.18333330	     -8.29551764	      3.00686510	      6.76963114	      1.85085288	      0.93041731	     -0.08661486	      3.19911033	     -7.52858289	    -17.58205070	      9.33522943	     -6.90555371	     -2.20978109	      0.00000000	      7.32068280	     -4.91332469	     -8.52633627	     10.51430481	    -11.75080156	      9.25523081	      0.00000000	     -1.35358525	     -6.19760469	     12.69518064	    132.79884703	     -7.93709002	     20.74950790	     20.56623233	     92.24716523	    119.38354923	     12.20730457	     20.15246292	     76.91057814	     86.32318159
